<?xml version="1.0" encoding="UTF-8"?>
<svg id="Layer_1" data-name="Layer 1" xmlns="http://www.w3.org/2000/svg" viewBox="0 0 447.1 88.34">
  <defs>
    <style>
      .cls-1 {
        fill: #58595b;
      }

      .cls-2 {
        fill: #6d6e70;
      }

      .cls-3 {
        fill: #404041;
      }

      .cls-4 {
        fill: #f27121;
      }

      .cls-4, .cls-5 {
        fill-rule: evenodd;
      }

      .cls-5 {
        fill: #808184;
      }
    </style>
  </defs>
  <g>
    <g>
      <polygon class="cls-4" points="1.47 12.85 22.98 .81 52.56 16.78 52.56 49.4 30.31 61.2 30.31 28.81 1.47 12.85"/>
      <path class="cls-1" d="M29.6,62.39V29.23L0,12.85,22.97,0l30.3,16.35v33.48l-23.67,12.56ZM2.94,12.84l28.09,15.55v31.63l20.82-11.04v-31.77L22.99,1.63,2.94,12.84Z"/>
    </g>
    <g>
      <polygon class="cls-5" points="4.07 79.01 4.07 44.34 24.95 33.3 24.95 50.42 24.95 87.63 21.43 87.63 4.07 79.01"/>
      <path class="cls-1" d="M25.66,88.34h-4.4l-17.9-8.88v-35.54l22.3-11.8v56.23ZM21.6,86.91h2.64v-52.43l-19.45,10.29v33.8l16.81,8.34Z"/>
    </g>
  </g>
  <g>
    <g>
      <path class="cls-3" d="M78.96,48.14v-30.6h9.91c3.76,0,6.21.15,7.35.46,1.75.46,3.22,1.46,4.4,3,1.18,1.54,1.77,3.52,1.77,5.96,0,1.88-.34,3.46-1.02,4.74s-1.55,2.29-2.6,3.02-2.12,1.21-3.2,1.45c-1.47.29-3.61.44-6.41.44h-4.03v11.54h-6.18ZM85.14,22.72v8.68h3.38c2.43,0,4.06-.16,4.88-.48.82-.32,1.46-.82,1.93-1.5.47-.68.7-1.47.7-2.38,0-1.11-.33-2.03-.98-2.75-.65-.72-1.48-1.18-2.48-1.36-.74-.14-2.22-.21-4.45-.21h-2.98Z"/>
      <path class="cls-3" d="M107.49,48.14v-30.6h13c3.27,0,5.65.27,7.13.82,1.48.55,2.67,1.53,3.56,2.93s1.34,3.01,1.34,4.82c0,2.3-.67,4.19-2.02,5.69-1.35,1.5-3.37,2.44-6.05,2.83,1.33.78,2.44,1.64,3.31,2.57.87.93,2.04,2.59,3.52,4.97l3.74,5.97h-7.39l-4.47-6.66c-1.59-2.38-2.67-3.88-3.26-4.5-.58-.62-1.2-1.04-1.86-1.27s-1.69-.34-3.11-.34h-1.25v12.77h-6.18ZM113.67,30.48h4.57c2.96,0,4.81-.12,5.55-.38.74-.25,1.31-.68,1.73-1.29.42-.61.63-1.38.63-2.3,0-1.03-.27-1.86-.82-2.49-.55-.63-1.33-1.03-2.33-1.2-.5-.07-2-.1-4.51-.1h-4.82v7.76Z"/>
      <path class="cls-3" d="M165.93,48.14h-6.72l-2.67-6.95h-12.23l-2.53,6.95h-6.55l11.92-30.6h6.53l12.25,30.6ZM154.56,36.03l-4.22-11.35-4.13,11.35h8.35Z"/>
      <path class="cls-3" d="M172.92,48.14v-25.42h-9.08v-5.18h24.32v5.18h-9.06v25.42h-6.18Z"/>
      <path class="cls-3" d="M192.17,48.14v-30.6h6.18v12.04h12.11v-12.04h6.18v30.6h-6.18v-13.38h-12.11v13.38h-6.18Z"/>
      <path class="cls-3" d="M250.61,48.14h-6.72l-2.67-6.95h-12.23l-2.53,6.95h-6.55l11.92-30.6h6.53l12.25,30.6ZM239.23,36.03l-4.22-11.35-4.13,11.35h8.35Z"/>
      <path class="cls-3" d="M253.8,48.14v-30.6h9.25l5.55,20.87,5.49-20.87h9.27v30.6h-5.74v-24.09l-6.07,24.09h-5.95l-6.05-24.09v24.09h-5.74Z"/>
      <path class="cls-3" d="M308.26,48.14v-25.42h-9.08v-5.18h24.32v5.18h-9.06v25.42h-6.18Z"/>
      <path class="cls-3" d="M325.45,33.03c0-3.12.47-5.73,1.4-7.85.7-1.56,1.65-2.96,2.85-4.2,1.2-1.24,2.52-2.16,3.96-2.75,1.91-.81,4.1-1.21,6.59-1.21,4.51,0,8.12,1.4,10.82,4.19,2.71,2.8,4.06,6.69,4.06,11.67s-1.34,8.8-4.03,11.59c-2.69,2.79-6.28,4.18-10.77,4.18s-8.17-1.39-10.85-4.16c-2.69-2.78-4.03-6.6-4.03-11.47ZM331.82,32.82c0,3.46.8,6.09,2.4,7.88,1.6,1.79,3.63,2.68,6.09,2.68s4.48-.89,6.06-2.66c1.58-1.77,2.37-4.43,2.37-7.98s-.77-6.12-2.31-7.85c-1.54-1.73-3.58-2.59-6.12-2.59s-4.6.87-6.16,2.62c-1.56,1.75-2.34,4.38-2.34,7.9Z"/>
      <path class="cls-3" d="M359.91,17.54h6.18v16.57c0,2.63.08,4.33.23,5.11.26,1.25.89,2.26,1.89,3.02,1,.76,2.36,1.14,4.08,1.14s3.08-.36,3.97-1.07c.89-.72,1.43-1.6,1.61-2.64s.27-2.78.27-5.2v-16.93h6.18v16.07c0,3.67-.17,6.27-.5,7.79s-.95,2.8-1.85,3.84c-.9,1.04-2.1,1.88-3.6,2.49s-3.46.93-5.89.93c-2.92,0-5.14-.34-6.65-1.01s-2.7-1.55-3.58-2.63c-.88-1.08-1.46-2.21-1.73-3.39-.4-1.75-.61-4.34-.61-7.76v-16.32Z"/>
      <path class="cls-3" d="M390.85,48.14v-30.6h13c3.27,0,5.65.27,7.13.82,1.48.55,2.67,1.53,3.56,2.93s1.34,3.01,1.34,4.82c0,2.3-.67,4.19-2.02,5.69-1.35,1.5-3.37,2.44-6.05,2.83,1.33.78,2.44,1.64,3.31,2.57.87.93,2.04,2.59,3.52,4.97l3.74,5.97h-7.39l-4.47-6.66c-1.59-2.38-2.67-3.88-3.26-4.5-.58-.62-1.2-1.04-1.86-1.27s-1.69-.34-3.11-.34h-1.25v12.77h-6.18ZM397.02,30.48h4.57c2.96,0,4.81-.12,5.55-.38.74-.25,1.31-.68,1.73-1.29.42-.61.63-1.38.63-2.3,0-1.03-.27-1.86-.82-2.49-.55-.63-1.33-1.03-2.33-1.2-.5-.07-2-.1-4.51-.1h-4.82v7.76Z"/>
      <path class="cls-3" d="M420.13,38.18l6.01-.58c.36,2.02,1.1,3.5,2.2,4.45,1.11.95,2.6,1.42,4.48,1.42,1.99,0,3.49-.42,4.5-1.26s1.51-1.83,1.51-2.95c0-.72-.21-1.34-.64-1.85-.42-.51-1.17-.95-2.22-1.33-.72-.25-2.37-.7-4.95-1.34-3.31-.82-5.63-1.83-6.97-3.03-1.88-1.68-2.82-3.74-2.82-6.16,0-1.56.44-3.02,1.33-4.37.88-1.36,2.16-2.39,3.82-3.1,1.66-.71,3.67-1.06,6.02-1.06,3.84,0,6.73.84,8.67,2.53s2.96,3.93,3.06,6.74l-6.18.27c-.26-1.57-.83-2.7-1.7-3.39-.87-.69-2.17-1.03-3.91-1.03s-3.2.37-4.22,1.11c-.65.47-.98,1.11-.98,1.9,0,.72.31,1.34.92,1.86.78.65,2.67,1.34,5.68,2.04,3,.71,5.23,1.44,6.67,2.2,1.44.76,2.57,1.79,3.38,3.11.81,1.31,1.22,2.94,1.22,4.87,0,1.75-.49,3.4-1.46,4.93-.97,1.53-2.35,2.67-4.13,3.41s-4,1.12-6.66,1.12c-3.87,0-6.84-.89-8.91-2.68-2.07-1.79-3.31-4.39-3.71-7.82Z"/>
    </g>
    <g>
      <path class="cls-2" d="M82.37,70.62v-7.15l-5.3-7.12h1.83l4.21,5.64,4.19-5.64h1.85l-5.33,7.15v7.12h-1.46Z"/>
      <path class="cls-2" d="M99.35,71c-1.76,0-3.22-.71-4.36-2.11s-1.72-3.2-1.72-5.36.58-3.96,1.73-5.37c1.15-1.41,2.6-2.11,4.36-2.11s3.22.71,4.38,2.12,1.74,3.2,1.74,5.37-.58,3.95-1.73,5.36c-1.15,1.41-2.62,2.11-4.38,2.11ZM99.35,69.33c1.32,0,2.42-.55,3.28-1.64s1.3-2.48,1.3-4.16-.43-3.08-1.29-4.18-1.96-1.64-3.29-1.64-2.42.55-3.28,1.65c-.87,1.1-1.3,2.49-1.3,4.17s.43,3.07,1.3,4.16c.87,1.09,1.96,1.64,3.28,1.64Z"/>
      <path class="cls-2" d="M113.55,56.35v9.25c0,1.48.23,2.48.69,2.98.46.5,1.36.76,2.7.76s2.24-.25,2.7-.76c.45-.5.68-1.5.68-2.98v-9.25h1.47v9.72c0,1.76-.38,3.02-1.13,3.78s-1.99,1.14-3.72,1.14-2.97-.38-3.72-1.14-1.13-2.02-1.13-3.78v-9.72h1.46Z"/>
      <path class="cls-2" d="M129.34,70.62v-14.28h6.75c1.15,0,2.05.35,2.71,1.05.65.7.98,1.67.98,2.92,0,1.03-.26,1.92-.77,2.66-.51.74-1.19,1.2-2.02,1.38l2.94,6.27h-1.62l-2.94-6.25h-4.56v6.25h-1.46ZM130.8,62.71h5.19c.74,0,1.3-.2,1.68-.6.38-.4.57-.98.57-1.75s-.19-1.33-.57-1.75-.92-.63-1.6-.63h-5.26v4.72Z"/>
      <path class="cls-2" d="M158.44,70.62v-14.28h1.48v5.64h6.94v-5.64h1.47v14.28h-1.47v-7h-6.94v7h-1.48Z"/>
      <path class="cls-2" d="M174.48,70.62l5.77-14.28h1.21l5.83,14.28h-1.59l-1.6-3.84h-6.5l-1.56,3.84h-1.57ZM178.28,65.12h5.18l-2.6-6.32-2.58,6.32Z"/>
      <path class="cls-2" d="M193.39,70.62v-14.28h6.75c1.14,0,2.04.34,2.7,1.03.66.69.99,1.63.99,2.83s-.32,2.25-.95,3.01c-.64.77-1.48,1.15-2.54,1.15h-5.48v6.25h-1.46ZM194.85,62.71h5.19c.74,0,1.3-.2,1.68-.6.38-.4.57-.98.57-1.75s-.19-1.33-.57-1.75-.92-.63-1.6-.63h-5.26v4.72Z"/>
      <path class="cls-2" d="M210.54,70.62v-14.28h6.75c1.14,0,2.04.34,2.7,1.03.66.69.99,1.63.99,2.83s-.32,2.25-.95,3.01c-.64.77-1.48,1.15-2.54,1.15h-5.48v6.25h-1.46ZM212,62.71h5.19c.74,0,1.3-.2,1.68-.6.38-.4.57-.98.57-1.75s-.19-1.33-.57-1.75-.92-.63-1.6-.63h-5.26v4.72Z"/>
      <path class="cls-2" d="M227.78,70.62v-14.35h1.48v14.35h-1.48Z"/>
      <path class="cls-2" d="M237.17,70.62v-14.28h.77l7.63,10.67v-10.67h1.47v14.28h-.75l-7.66-10.67v10.67h-1.46Z"/>
      <path class="cls-2" d="M254.91,70.62v-14.28h9.25v1.64h-7.79v4.19h4.71v1.64h-4.71v5.16h8.27v1.64h-9.73Z"/>
      <path class="cls-2" d="M270.07,68.48l.85-1.54c.83.79,1.7,1.38,2.59,1.8s1.79.62,2.67.62c1.09,0,1.97-.28,2.65-.84s1.02-1.28,1.02-2.16c0-.7-.24-1.27-.73-1.73-.49-.45-1.16-.72-2.02-.81-.21-.03-.5-.05-.89-.08-1.93-.16-3.25-.44-3.95-.83-.55-.32-.96-.73-1.25-1.23-.28-.5-.43-1.07-.43-1.7,0-1.15.42-2.09,1.27-2.83s1.94-1.11,3.29-1.11c.98,0,1.95.2,2.9.59.96.39,1.86.97,2.72,1.74l-.85,1.47c-.73-.71-1.49-1.24-2.29-1.6-.8-.36-1.62-.54-2.47-.54-.89,0-1.62.21-2.2.63-.58.42-.86.94-.86,1.57,0,.25.05.48.14.69.09.21.23.4.43.58.48.44,1.53.72,3.13.84.74.05,1.31.11,1.72.17,1.19.16,2.14.63,2.83,1.4.7.77,1.04,1.71,1.04,2.83,0,1.34-.48,2.44-1.43,3.3-.96.86-2.21,1.29-3.76,1.29-1.17,0-2.26-.21-3.27-.62-1.01-.41-1.96-1.05-2.87-1.9Z"/>
      <path class="cls-2" d="M287.47,68.48l.85-1.54c.83.79,1.7,1.38,2.59,1.8s1.79.62,2.67.62c1.09,0,1.97-.28,2.65-.84s1.02-1.28,1.02-2.16c0-.7-.24-1.27-.73-1.73-.49-.45-1.16-.72-2.02-.81-.21-.03-.5-.05-.89-.08-1.93-.16-3.25-.44-3.95-.83-.55-.32-.96-.73-1.25-1.23-.28-.5-.43-1.07-.43-1.7,0-1.15.42-2.09,1.27-2.83s1.94-1.11,3.29-1.11c.98,0,1.95.2,2.9.59.96.39,1.86.97,2.72,1.74l-.85,1.47c-.73-.71-1.49-1.24-2.29-1.6-.8-.36-1.62-.54-2.47-.54-.89,0-1.62.21-2.2.63-.58.42-.86.94-.86,1.57,0,.25.05.48.14.69.09.21.23.4.43.58.48.44,1.53.72,3.13.84.74.05,1.31.11,1.72.17,1.19.16,2.14.63,2.83,1.4.7.77,1.04,1.71,1.04,2.83,0,1.34-.48,2.44-1.43,3.3-.96.86-2.21,1.29-3.76,1.29-1.17,0-2.26-.21-3.27-.62-1.01-.41-1.96-1.05-2.87-1.9Z"/>
      <path class="cls-2" d="M322.77,71c-1.76,0-3.22-.71-4.36-2.11s-1.72-3.2-1.72-5.36.58-3.96,1.73-5.37c1.15-1.41,2.6-2.11,4.36-2.11s3.22.71,4.38,2.12,1.74,3.2,1.74,5.37-.58,3.95-1.73,5.36c-1.15,1.41-2.62,2.11-4.38,2.11ZM322.77,69.33c1.32,0,2.42-.55,3.28-1.64s1.3-2.48,1.3-4.16-.43-3.08-1.29-4.18-1.96-1.64-3.29-1.64-2.42.55-3.28,1.65c-.87,1.1-1.3,2.49-1.3,4.17s.43,3.07,1.3,4.16c.87,1.09,1.96,1.64,3.28,1.64Z"/>
      <path class="cls-2" d="M336.97,56.35v9.25c0,1.48.23,2.48.69,2.98.46.5,1.36.76,2.7.76s2.24-.25,2.7-.76c.45-.5.68-1.5.68-2.98v-9.25h1.47v9.72c0,1.76-.38,3.02-1.13,3.78s-1.99,1.14-3.72,1.14-2.97-.38-3.72-1.14-1.13-2.02-1.13-3.78v-9.72h1.46Z"/>
      <path class="cls-2" d="M352.76,70.62v-14.28h6.75c1.15,0,2.05.35,2.71,1.05.65.7.98,1.67.98,2.92,0,1.03-.26,1.92-.77,2.66-.51.74-1.19,1.2-2.02,1.38l2.94,6.27h-1.62l-2.94-6.25h-4.56v6.25h-1.46ZM354.22,62.71h5.19c.74,0,1.3-.2,1.68-.6.38-.4.57-.98.57-1.75s-.19-1.33-.57-1.75-.92-.63-1.6-.63h-5.26v4.72Z"/>
      <path class="cls-2" d="M390.87,66.76v-2.09h-3.21v-1.64h4.67v4.29c-.57,1.19-1.31,2.1-2.22,2.74s-1.95.95-3.11.95c-1.76,0-3.22-.71-4.36-2.11s-1.72-3.2-1.72-5.36.58-3.96,1.73-5.37c1.15-1.41,2.6-2.11,4.36-2.11,1.09,0,2.08.29,2.97.87.9.58,1.62,1.4,2.19,2.47l-1.23,1.06c-.37-.85-.9-1.52-1.6-2-.7-.48-1.47-.72-2.33-.72-1.32,0-2.42.55-3.28,1.65-.87,1.1-1.3,2.49-1.3,4.17s.43,3.07,1.3,4.16c.87,1.09,1.96,1.64,3.28,1.64.82,0,1.56-.22,2.2-.65.64-.43,1.2-1.07,1.67-1.93Z"/>
      <path class="cls-2" d="M404.86,71c-1.76,0-3.22-.71-4.36-2.11s-1.72-3.2-1.72-5.36.58-3.96,1.73-5.37c1.15-1.41,2.6-2.11,4.36-2.11s3.22.71,4.38,2.12,1.74,3.2,1.74,5.37-.58,3.95-1.73,5.36c-1.15,1.41-2.62,2.11-4.38,2.11ZM404.86,69.33c1.32,0,2.42-.55,3.28-1.64s1.3-2.48,1.3-4.16-.43-3.08-1.29-4.18-1.96-1.64-3.29-1.64-2.42.55-3.28,1.65c-.87,1.1-1.3,2.49-1.3,4.17s.43,3.07,1.3,4.16c.87,1.09,1.96,1.64,3.28,1.64Z"/>
      <path class="cls-2" d="M415.76,70.62l5.77-14.28h1.21l5.83,14.28h-1.59l-1.6-3.84h-6.5l-1.56,3.84h-1.57ZM419.55,65.12h5.18l-2.6-6.32-2.58,6.32Z"/>
      <path class="cls-2" d="M434.73,70.62v-14.28h1.46v12.63h7.68v1.64h-9.14Z"/>
    </g>
  </g>
</svg>